<svg id="visual" viewBox="0 0 900 600" width="900" height="600" xmlns="http://www.w3.org/2000/svg" xmlns:xlink="http://www.w3.org/1999/xlink" version="1.1"><g transform="translate(437.82573067511345 327.29418033454834)"><path d="M86.3 -133.5C112.3 -100 134.2 -75.3 163.3 -40.2C192.4 -5 228.9 40.6 231.9 88.9C234.9 137.3 204.4 188.4 160.2 186.5C116 184.6 58 129.8 20.9 101.1C-16.3 72.4 -32.5 69.8 -79.1 72.4C-125.7 75 -202.7 83 -207.5 67.5C-212.4 52.1 -145.2 13.4 -128 -42.2C-110.8 -97.8 -143.6 -170.2 -130.6 -208C-117.6 -245.8 -58.8 -248.9 -14.3 -229.2C30.2 -209.5 60.3 -167.1 86.3 -133.5" fill="none" stroke="#FCAF3C" stroke-width="6"></path></g></svg>