<!--?xml version="1.0" standalone="no"?-->
              <svg id="sw-js-blob-svg" viewBox="0 0 100 100" xmlns="http://www.w3.org/2000/svg" version="1.1">
                    <defs> 
                        <linearGradient id="sw-gradient" x1="0" x2="1" y1="1" y2="0">
                            <stop id="stop1" stop-color="rgba(248, 117, 55, 1)" offset="0%"></stop>
                            <stop id="stop2" stop-color="rgba(228.888, 142.535, 0, 1)" offset="100%"></stop>
                        </linearGradient>
                    </defs>
                <path fill="url(#sw-gradient)" d="M21.1,-29.1C26.9,-24.9,30.7,-18.1,33.6,-10.6C36.5,-3.1,38.4,5,36,11.4C33.5,17.8,26.6,22.5,19.9,28.2C13.2,33.8,6.6,40.4,-0.1,40.6C-6.8,40.7,-13.5,34.3,-20.9,28.9C-28.2,23.4,-36,18.8,-37.9,12.5C-39.7,6.1,-35.6,-2.1,-31.6,-9C-27.6,-16,-23.8,-21.8,-18.6,-26.2C-13.3,-30.5,-6.7,-33.5,0.5,-34.2C7.7,-34.9,15.4,-33.3,21.1,-29.1Z" width="100%" height="100%" transform="translate(50 50)" stroke-width="0" style="transition: all 0.3s ease 0s;" stroke="url(#sw-gradient)"></path>
              </svg>