<!--?xml version="1.0" standalone="no"?-->
              <svg id="sw-js-blob-svg" viewBox="0 0 100 100" xmlns="http://www.w3.org/2000/svg" version="1.1">
                    <defs> 
                        <linearGradient id="sw-gradient" x1="0" x2="1" y1="1" y2="0">
                            <stop id="stop1" stop-color="rgba(248, 117, 55, 1)" offset="0%"></stop>
                            <stop id="stop2" stop-color="rgba(228.888, 142.535, 0, 1)" offset="100%"></stop>
                        </linearGradient>
                    </defs>
                <path fill="url(#sw-gradient)" d="M20.1,-30.7C23.8,-28.9,22.9,-19.5,26.2,-12C29.5,-4.6,36.9,0.9,36.6,5.5C36.3,10.1,28.2,13.8,22.4,18C16.6,22.3,13,27.1,7.5,31.5C2,35.9,-5.5,39.9,-11.8,38.8C-18.2,37.6,-23.6,31.4,-27.8,25C-32,18.6,-35,12,-31.6,7.2C-28.1,2.4,-18.2,-0.7,-12.8,-3.1C-7.4,-5.4,-6.4,-7,-5.1,-9.8C-3.7,-12.7,-1.8,-16.8,3.2,-21.7C8.2,-26.7,16.4,-32.5,20.1,-30.7Z" width="100%" height="100%" transform="translate(50 50)" stroke-width="0" style="transition: all 0.3s ease 0s;" stroke="url(#sw-gradient)"></path>
              </svg>