<svg id="visual" viewBox="0 0 900 600" width="900" height="600" xmlns="http://www.w3.org/2000/svg" xmlns:xlink="http://www.w3.org/1999/xlink" version="1.1"><g transform="translate(505.02696565614696 351.4639611208409)"><path d="M149.8 -233.6C183.3 -181.9 192 -123.6 186.7 -75.8C181.3 -28 162 9.2 165 70.2C168 131.2 193.3 216.1 169.5 231.8C145.8 247.5 72.9 194.1 17.6 169.8C-37.6 145.5 -75.2 150.4 -129.4 144.6C-183.7 138.8 -254.5 122.2 -282.6 81.1C-310.7 40 -296.1 -25.8 -275.8 -90C-255.5 -154.3 -229.4 -217.1 -182.5 -264.4C-135.6 -311.6 -67.8 -343.3 -4.8 -336.7C58.2 -330.1 116.4 -285.2 149.8 -233.6" fill="#BB004B"></path></g></svg>