<svg id="visual" viewBox="0 0 900 600" width="900" height="600" xmlns="http://www.w3.org/2000/svg" xmlns:xlink="http://www.w3.org/1999/xlink" version="1.1"><g transform="translate(432.670216754405 277.949577034069)"><path d="M120.6 -176.6C159.7 -162.5 197.2 -134.8 215.1 -97.6C233 -60.4 231.3 -13.7 216.3 25C201.2 63.7 172.8 94.4 148.6 136.9C124.4 179.3 104.5 233.6 70.1 247.8C35.8 261.9 -13 236 -53.1 210.7C-93.3 185.3 -124.9 160.4 -149.2 130.4C-173.6 100.3 -190.7 65.1 -193.1 29.5C-195.4 -6 -183 -42 -172.9 -85.1C-162.7 -128.2 -154.9 -178.5 -126.5 -197.5C-98 -216.5 -49 -204.3 -4.1 -197.8C40.7 -191.4 81.5 -190.7 120.6 -176.6" fill="none" stroke="#BB004B" stroke-width="6"></path></g></svg>