<!--?xml version="1.0" standalone="no"?-->
              <svg id="sw-js-blob-svg" viewBox="0 0 100 100" xmlns="http://www.w3.org/2000/svg" version="1.1">
                    <defs> 
                        <linearGradient id="sw-gradient" x1="0" x2="1" y1="1" y2="0">
                            <stop id="stop1" stop-color="rgba(248, 117, 55, 1)" offset="0%"></stop>
                            <stop id="stop2" stop-color="rgba(228.888, 142.535, 0, 1)" offset="100%"></stop>
                        </linearGradient>
                    </defs>
                <path fill="none" d="M8.1,-13.3C9.5,-10.2,8.9,-6.4,15.1,-1.6C21.2,3.3,34.1,9.3,35.4,13.4C36.6,17.5,26.3,19.8,18.5,20.3C10.7,20.9,5.3,19.7,-2.1,22.6C-9.5,25.5,-19,32.4,-24.5,31.1C-30,29.8,-31.4,20.2,-33.1,11.6C-34.8,2.9,-36.8,-4.9,-35.3,-12.1C-33.9,-19.4,-28.9,-26.2,-22.4,-27.7C-16,-29.2,-8,-25.5,-2.3,-22.3C3.4,-19.1,6.7,-16.5,8.1,-13.3Z" width="100%" height="100%" transform="translate(50 50)" stroke-width="1" style="transition: all 0.3s ease 0s;" stroke="url(#sw-gradient)"></path>
              </svg>