<!--?xml version="1.0" standalone="no"?-->
              <svg id="sw-js-blob-svg" viewBox="0 0 100 100" xmlns="http://www.w3.org/2000/svg" version="1.1">
                    <defs> 
                        <linearGradient id="sw-gradient" x1="0" x2="1" y1="1" y2="0">
                            <stop id="stop1" stop-color="rgba(248, 117, 55, 1)" offset="0%"></stop>
                            <stop id="stop2" stop-color="rgba(228.888, 142.535, 0, 1)" offset="100%"></stop>
                        </linearGradient>
                    </defs>
                <path fill="none" d="M8,-9.7C10.9,-7.1,14,-5.1,19.1,0.1C24.2,5.3,31.2,13.7,29.6,17.6C28,21.6,17.7,21.1,9,23.8C0.4,26.6,-6.8,32.5,-11.3,30.9C-15.8,29.3,-17.7,20.3,-21,12.9C-24.2,5.5,-28.9,-0.2,-27.4,-4.1C-25.8,-8,-18,-10.1,-12.4,-12.3C-6.8,-14.4,-3.4,-16.6,-0.4,-16.1C2.6,-15.6,5.1,-12.4,8,-9.7Z" width="100%" height="100%" transform="translate(50 50)" stroke-width="1" style="transition: all 0.3s ease 0s;" stroke="url(#sw-gradient)"></path>
              </svg>