<!--?xml version="1.0" standalone="no"?-->
              <svg id="sw-js-blob-svg" viewBox="0 0 100 100" xmlns="http://www.w3.org/2000/svg" version="1.1">
                    <defs> 
                        <linearGradient id="sw-gradient" x1="0" x2="1" y1="1" y2="0">
                            <stop id="stop1" stop-color="rgba(248, 117, 55, 1)" offset="0%"></stop>
                            <stop id="stop2" stop-color="rgba(228.888, 142.535, 0, 1)" offset="100%"></stop>
                        </linearGradient>
                    </defs>
                <path fill="url(#sw-gradient)" d="M22.1,-30.8C26.7,-27,27.4,-18,23.5,-11.9C19.7,-5.7,11.5,-2.3,10.6,4.4C9.8,11.2,16.3,21.4,15.8,28.8C15.3,36.2,7.6,40.9,0.2,40.7C-7.3,40.5,-14.6,35.3,-21.7,30C-28.8,24.7,-35.7,19.3,-38.9,12C-42.1,4.8,-41.6,-4.3,-34.9,-7.1C-28.2,-9.9,-15.2,-6.5,-8.3,-9.6C-1.5,-12.7,-0.7,-22.4,4,-27.8C8.7,-33.3,17.4,-34.6,22.1,-30.8Z" width="100%" height="100%" transform="translate(50 50)" stroke-width="0" style="transition: all 0.3s ease 0s;" stroke="url(#sw-gradient)"></path>
              </svg>