<!--?xml version="1.0" standalone="no"?-->
              <svg id="sw-js-blob-svg" viewBox="0 0 100 100" xmlns="http://www.w3.org/2000/svg" version="1.1">
                    <defs> 
                        <linearGradient id="sw-gradient" x1="0" x2="1" y1="1" y2="0">
                            <stop id="stop1" stop-color="rgba(248, 117, 55, 1)" offset="0%"></stop>
                            <stop id="stop2" stop-color="rgba(251, 168, 31, 1)" offset="100%"></stop>
                        </linearGradient>
                    </defs>
                <path fill="url(#sw-gradient)" d="M20,-24C26.5,-18.4,32.6,-12.6,33.5,-6.1C34.5,0.4,30.1,7.6,26.3,16.1C22.5,24.5,19.2,34.2,12.9,37.2C6.6,40.2,-2.7,36.7,-12.5,33.5C-22.3,30.3,-32.6,27.6,-35.6,21.2C-38.6,14.8,-34.3,4.7,-32.3,-5.5C-30.3,-15.8,-30.6,-26.3,-25.6,-32.1C-20.6,-37.9,-10.3,-39,-1.8,-36.9C6.8,-34.8,13.6,-29.5,20,-24Z" width="100%" height="100%" transform="translate(50 50)" stroke-width="0" style="transition: all 0.3s ease 0s;"></path>
              </svg>