<!--?xml version="1.0" standalone="no"?-->
              <svg id="sw-js-blob-svg" viewBox="0 0 100 100" xmlns="http://www.w3.org/2000/svg" version="1.1">
                    <defs> 
                        <linearGradient id="sw-gradient" x1="0" x2="1" y1="1" y2="0">
                            <stop id="stop1" stop-color="rgba(248, 117, 55, 1)" offset="0%"></stop>
                            <stop id="stop2" stop-color="rgba(228.888, 142.535, 0, 1)" offset="100%"></stop>
                        </linearGradient>
                    </defs>
                <path fill="none" d="M23.5,-35.9C30.1,-32.3,35,-25.2,34.1,-18.2C33.3,-11.2,26.7,-4.2,22.6,1.1C18.5,6.4,17,9.9,15.9,17.2C14.9,24.5,14.3,35.6,9.9,39.6C5.5,43.5,-2.7,40.3,-9.4,36.3C-16.1,32.4,-21.4,27.7,-24.5,22.2C-27.6,16.8,-28.6,10.5,-27.2,5.3C-25.9,0.1,-22.1,-4.2,-19.9,-9.2C-17.8,-14.3,-17.3,-20.2,-14.2,-25.5C-11.2,-30.8,-5.6,-35.4,1.4,-37.6C8.4,-39.8,16.8,-39.6,23.5,-35.9Z" width="100%" height="100%" transform="translate(50 50)" stroke-width="1" style="transition: all 0.3s ease 0s;" stroke="url(#sw-gradient)"></path>
              </svg>