<!--?xml version="1.0" standalone="no"?-->
              <svg id="sw-js-blob-svg" viewBox="0 0 100 100" xmlns="http://www.w3.org/2000/svg" version="1.1">
                    <defs> 
                        <linearGradient id="sw-gradient" x1="0" x2="1" y1="1" y2="0">
                            <stop id="stop1" stop-color="rgba(248, 117, 55, 1)" offset="0%"></stop>
                            <stop id="stop2" stop-color="rgba(228.888, 142.535, 0, 1)" offset="100%"></stop>
                        </linearGradient>
                    </defs>
                <path fill="url(#sw-gradient)" d="M17.8,-22.6C23.7,-20.3,29.3,-15.8,31.5,-10C33.7,-4.2,32.4,3,30.6,10.3C28.7,17.7,26.2,25.2,21,30.2C15.8,35.3,7.9,37.9,1.3,36C-5.2,34.1,-10.5,27.9,-18.2,23.7C-26,19.4,-36.3,17.3,-39.3,11.9C-42.2,6.5,-37.7,-2.2,-30.8,-5.8C-23.9,-9.5,-14.5,-8.2,-8.9,-10.6C-3.4,-13,-1.7,-19,2.2,-22C6,-25,12,-24.9,17.8,-22.6Z" width="100%" height="100%" transform="translate(50 50)" stroke-width="0" style="transition: all 0.3s ease 0s;" stroke="url(#sw-gradient)"></path>
              </svg>