<!--?xml version="1.0" standalone="no"?-->
              <svg id="sw-js-blob-svg" viewBox="0 0 100 100" xmlns="http://www.w3.org/2000/svg" version="1.1">
                    <defs> 
                        <linearGradient id="sw-gradient" x1="0" x2="1" y1="1" y2="0">
                            <stop id="stop1" stop-color="rgba(248, 117, 55, 1)" offset="0%"></stop>
                            <stop id="stop2" stop-color="rgba(251, 168, 31, 1)" offset="100%"></stop>
                        </linearGradient>
                    </defs>
                <path fill="none" d="M15.1,-20.9C18.5,-21.2,19.4,-15.3,22,-10C24.7,-4.6,28.9,0.1,31,6.4C33.1,12.7,33,20.6,29.2,25.7C25.4,30.7,17.8,32.8,10,36C2.1,39.3,-6,43.6,-10.8,40.4C-15.6,37.3,-17.1,26.7,-22.3,19.8C-27.6,12.9,-36.7,9.7,-36.4,5.8C-36.1,1.8,-26.5,-3,-21.1,-7.4C-15.6,-11.8,-14.2,-15.9,-11.4,-15.8C-8.6,-15.8,-4.3,-11.6,0.8,-12.8C5.8,-14,11.7,-20.6,15.1,-20.9Z" width="100%" height="100%" transform="translate(50 50)" stroke-width="1" style="transition: all 0.3s ease 0s;" stroke="url(#sw-gradient)"></path>
              </svg>